<svg id="visual" viewBox="0 0 960 540" width="960" height="540" xmlns="http://www.w3.org/2000/svg" xmlns:xlink="http://www.w3.org/1999/xlink" version="1.1"><path d="M0 423L22.8 428C45.7 433 91.3 443 137 449.3C182.7 455.7 228.3 458.3 274 451.8C319.7 445.3 365.3 429.7 411.2 427.8C457 426 503 438 548.8 444.8C594.7 451.7 640.3 453.3 686 446.8C731.7 440.3 777.3 425.7 823 420.5C868.7 415.3 914.3 419.7 937.2 421.8L960 424L960 541L937.2 541C914.3 541 868.7 541 823 541C777.3 541 731.7 541 686 541C640.3 541 594.7 541 548.8 541C503 541 457 541 411.2 541C365.3 541 319.7 541 274 541C228.3 541 182.7 541 137 541C91.3 541 45.7 541 22.8 541L0 541Z" fill="#f1c40e"></path><path d="M0 507L22.8 506.3C45.7 505.7 91.3 504.3 137 497.7C182.7 491 228.3 479 274 478.8C319.7 478.7 365.3 490.3 411.2 495.7C457 501 503 500 548.8 495.7C594.7 491.3 640.3 483.7 686 481.7C731.7 479.7 777.3 483.3 823 488.3C868.7 493.3 914.3 499.7 937.2 502.8L960 506L960 541L937.2 541C914.3 541 868.7 541 823 541C777.3 541 731.7 541 686 541C640.3 541 594.7 541 548.8 541C503 541 457 541 411.2 541C365.3 541 319.7 541 274 541C228.3 541 182.7 541 137 541C91.3 541 45.7 541 22.8 541L0 541Z" fill="#ff7566"></path></svg>